<?xml version="1.0" encoding="UTF-8" standalone="no"?>
<!-- Created with Inkscape (http://www.inkscape.org/) -->

<svg
   version="1.1"
   id="svg2"
   xml:space="preserve"
   width="2.4993546in"
   height="0.49935415in"
   viewBox="0 0 239.93804 47.937999"
   xmlns="http://www.w3.org/2000/svg"
   xmlns:svg="http://www.w3.org/2000/svg"
   xmlns:rdf="http://www.w3.org/1999/02/22-rdf-syntax-ns#"
   xmlns:cc="http://creativecommons.org/ns#"
   xmlns:dc="http://purl.org/dc/elements/1.1/"><metadata
     id="metadata8"><rdf:RDF><cc:Work
         rdf:about=""><dc:format>image/svg+xml</dc:format><dc:type
           rdf:resource="http://purl.org/dc/dcmitype/StillImage" /></cc:Work></rdf:RDF></metadata><defs
     id="defs6" /><g
     id="g10"
     transform="matrix(1.3333333,0,0,-1.3333333,-42.295986,1692.334)"><g
       id="g13"><path
         style="display:inline;fill:#ffffff;fill-opacity:1;stroke:none;stroke-width:0.0464719;stroke-linecap:round"
         d="m 42.25447,1269.2505 h 130.0911 28.79747 c 5.835,0 10.53249,-4.6975 10.53249,-10.5325 v -14.8886 c 0,-5.835 -4.69749,-10.5324 -10.53249,-10.5324 H 42.25447 c -5.83499,0 -10.532479,4.6974 -10.532479,10.5324 v 14.8886 c 0,5.835 4.697489,10.5325 10.532479,10.5325 z"
         id="path7" /><path
         style="display:inline;fill:#000000;fill-opacity:0.70276;stroke-width:0.397217"
         d="m 147.29329,1241.006 -0.80556,1.1909 -0.14776,10e-5 c -0.0812,1e-4 -0.26618,0 -0.41091,0.01 l -0.26316,0.01 -0.0168,-0.095 c -0.0739,-0.4135 -0.26939,-0.8388 -0.54221,-1.1802 -0.0958,-0.1198 -0.28673,-0.3114 -0.40652,-0.4079 -0.56903,-0.4585 -1.30342,-0.6671 -2.02104,-0.5742 -0.85132,0.1104 -1.58787,0.6133 -2.00943,1.3719 -0.14229,0.2561 -0.25389,0.5833 -0.29503,0.8651 l -0.0164,0.1121 h -0.0424 c -0.0233,0 -1.88698,0.033 -4.14145,0.072 -2.25447,0.04 -4.10095,0.07 -4.10328,0.068 -0.002,0 -0.0144,-0.052 -0.0269,-0.1111 -0.1001,-0.4725 -0.32764,-0.894 -0.66667,-1.2348 -0.23216,-0.2334 -0.4791,-0.4055 -0.76151,-0.5302 -0.59099,-0.2613 -1.26524,-0.2829 -1.87113,-0.06 -0.22047,0.081 -0.51213,0.2464 -0.69348,0.393 -0.42104,0.3405 -0.72722,0.8169 -0.85895,1.3366 -0.0548,0.2165 -0.0662,0.3189 -0.0665,0.6011 -3.6e-4,0.2946 0.009,0.3785 0.0679,0.6134 0.19563,0.7801 0.76976,1.4272 1.52392,1.7175 0.4762,0.1833 0.99353,0.2146 1.49194,0.09 0.52263,-0.1305 1.00402,-0.4394 1.34356,-0.8623 0.15256,-0.1902 0.31889,-0.487 0.39854,-0.7115 0.0444,-0.1252 0.0995,-0.3389 0.11685,-0.454 l 0.0119,-0.079 h 0.0632 c 0.0347,-10e-5 1.89894,-0.032 4.14264,-0.071 2.2437,-0.039 4.08028,-0.071 4.08128,-0.069 8.2e-4,0 0.0135,0.061 0.0278,0.1308 0.14117,0.6986 0.55736,1.3099 1.16356,1.7092 0.12791,0.084 0.39076,0.2174 0.53013,0.2684 0.58844,0.2154 1.21968,0.2206 1.81532,0.014 0.24807,-0.085 0.57611,-0.2688 0.79573,-0.4442 0.10956,-0.087 0.31424,-0.2932 0.40189,-0.404 0.29706,-0.3755 0.47817,-0.7788 0.55477,-1.2351 l 0.0223,-0.133 0.37887,-0.01 c 0.20839,-0.01 0.38045,-0.01 0.38237,-0.01 0.005,0.01 0.0348,1.6678 0.0297,1.6728 -0.002,0 -0.17282,0.01 -0.37864,0.01 l -0.3742,0.01 0.006,0.244 c 0.003,0.1341 0.0407,2.2944 0.0834,4.8008 0.0428,2.5062 0.0799,4.567 0.0822,4.5794 l 0.004,0.023 0.14966,-0.01 c 0.0823,0 0.34594,-0.01 0.58582,-0.011 l 0.43614,-0.01 v 0.2 c 0,0.11 0.002,0.2713 0.006,0.3584 l 0.006,0.1583 c 0.16712,0 -0.7022,0.017 -0.88427,0.02 -0.54505,0.01 -0.99174,0.018 -0.99263,0.02 -0.005,0.01 0.0115,0.6928 0.0169,0.6983 0.005,0.01 3.15313,-0.046 5.97203,-0.098 l 0.32556,-0.01 -0.005,-0.3488 c -0.002,-0.1918 -0.006,-0.3506 -0.008,-0.3528 -0.002,0 -0.46791,0 -1.03548,0.013 h -0.83769 l -0.006,-0.3561 -0.006,-0.3562 0.23267,-0.01 c 0.12797,0 0.3992,-0.01 0.60275,-0.012 l 0.37008,-0.01 -0.005,-0.091 c -0.002,-0.05 -0.007,-0.2738 -0.0103,-0.4967 -0.002,-0.2228 -0.007,-0.4979 -0.0109,-0.6112 l -0.006,-0.2059 0.4834,-0.01 c 0.26587,0 0.48475,-0.01 0.4864,0 0.002,0 0.0103,0.4516 0.0188,0.9995 0.008,0.5479 0.0181,1.0229 0.0208,1.0555 l 0.005,0.06 c 0.015,-3e-4 0.0292,0.01 0.0438,0.01 h -0.23595 l 8.4e-4,0.2361 c 7.9e-4,0.1297 0.004,0.2894 0.007,0.355 l 0.006,0.1192 1.46186,-0.026 c 0.80404,-0.014 1.4637,-0.028 1.46594,-0.03 0.002,0 8.2e-4,-0.1613 -0.002,-0.3534 l -0.006,-0.3493 h -0.12955 c -0.0712,0 -0.11371,0 -0.0943,-0.01 h 0.0351 l -0.004,-0.097 c -0.006,-0.1542 -0.0356,-2.0088 -0.0313,-2.0131 0.002,0 0.26758,-0.01 0.58992,-0.014 0.32232,-0.01 0.58773,-0.012 0.58977,-0.014 0.005,-0.01 -0.047,-2.9722 -0.0519,-2.9771 -0.002,0 -0.26817,0 -0.5916,0.01 -0.32343,0.01 -0.58904,0.01 -0.59023,0.01 -0.004,-0.01 -0.0245,-1.2395 -0.0209,-1.2432 0.002,0 0.26061,-0.01 0.57477,-0.014 0.31415,-0.01 0.57313,-0.012 0.57553,-0.015 0.002,0 -0.005,-0.5732 -0.017,-1.2691 -0.0117,-0.6958 -0.0213,-1.2807 -0.0211,-1.2997 l 3.7e-4,-0.035 0.30268,-0.01 c 0.16648,0 0.42014,-0.01 0.56371,-0.011 l 0.26104,-0.01 -0.006,-0.2537 c -0.003,-0.1396 -0.006,-0.3374 -0.008,-0.4397 l -0.002,-0.1859 0.12306,-0.01 c 0.51617,-0.028 1.04333,-0.2419 1.44477,-0.5842 0.96799,-0.8256 1.1653,-2.2245 0.46257,-3.2794 -0.22317,-0.3351 -0.51956,-0.6066 -0.87897,-0.8053 -0.56662,-0.3134 -1.25714,-0.3887 -1.88617,-0.206 -0.30028,0.087 -0.62754,0.2579 -0.86588,0.4516 -0.45512,0.3698 -0.77198,0.8948 -0.88317,1.4632 l -0.0219,0.1118 h -0.0818 c -0.045,4e-4 -0.98057,0.016 -2.07903,0.036 -1.82388,0.033 -1.99859,0.035 -2.01312,0.021 -0.009,-0.01 -0.38775,-0.5255 -0.84223,-1.1495 -0.45447,-0.6239 -0.83126,-1.1395 -0.83731,-1.1457 -0.008,-0.01 -0.20472,0.2753 -0.81655,1.1797 z m 6.6283,1.77 c -0.0273,0 -0.0745,0 -0.10486,10e-5 h 0.0497 0.0552 z m -0.31971,0.01 h -0.26216 0.13108 z m -0.54339,0.01 h -0.26217 0.13108 z m -0.54339,0.01 h -0.26217 0.13109 z m -0.54282,0.01 h -0.26692 0.13049 z m -0.5535,0.01 h -0.26216 0.13107 z m -0.54339,0.01 h -0.26217 0.13109 z m -0.44021,0.01 c -0.002,0.01 8.2e-4,0.3489 0.009,0.765 0.007,0.4162 0.0141,0.7892 0.0142,0.829 l 1.1e-4,0.072 -0.2781,0.01 c -0.15296,0 -0.27976,0.01 -0.2818,0 -0.003,0 -0.0305,-1.3535 -0.0309,-1.5614 l -2.6e-4,-0.1115 h 0.0406 c 0.0866,-0.01 0.53236,-0.01 0.5274,0 z m 1.25622,5.9045 c 0.003,0.1377 0.009,0.4182 0.0122,0.6233 l 0.006,0.3729 -0.47845,0.01 c -0.26316,0 -0.4813,0.01 -0.48475,0 -0.003,0 -0.009,-0.1938 -0.0132,-0.423 -0.004,-0.2292 -0.009,-0.5078 -0.0113,-0.6191 l -0.004,-0.2025 h 0.24438 c 0.13441,0 0.35209,0 0.48373,-0.01 h 0.23933 z m -89.353206,-8.6549 c -0.01572,0 -0.06934,0.01 -0.119166,0.014 -0.496783,0.056 -0.926073,0.252 -1.241146,0.5649 -0.308396,0.3063 -0.49291,0.7099 -0.555174,1.2142 -0.100897,0.8173 0.141713,1.4691 0.719069,1.9318 0.411162,0.3295 1.055904,0.5762 1.75888,0.673 0.342121,0.047 0.412195,0.05 1.166678,0.054 l 0.718622,0.01 -0.0057,0.3067 c -0.0058,0.3067 -0.01258,0.3806 -0.04915,0.5211 -0.109013,0.4192 -0.43864,0.6747 -0.977365,0.7581 -0.227689,0.036 -0.704747,0.029 -1.058924,-0.014 -0.540313,-0.066 -1.18848,-0.2469 -1.689019,-0.4705 l -0.05478,-0.025 v 0.6709 0.6709 l 0.159676,0.057 c 0.721899,0.2591 1.566024,0.402 2.37615,0.4022 0.82272,2e-4 1.501146,-0.1366 1.969317,-0.3971 0.604646,-0.3364 0.926627,-0.8879 0.995237,-1.7049 0.0057,-0.073 0.0097,-1.013 0.0097,-2.6002 l 10e-5,-2.4857 h -0.718411 -0.718407 l -0.0057,0.1027 c -0.0033,0.056 -0.01299,0.2633 -0.02159,0.4599 -0.0086,0.1967 -0.01696,0.3591 -0.01853,0.3608 -0.0016,0 -0.058,-0.051 -0.125189,-0.1185 -0.315677,-0.3149 -0.579591,-0.5094 -0.90394,-0.6664 -0.264253,-0.1279 -0.593218,-0.2236 -0.919957,-0.2676 -0.112547,-0.014 -0.615055,-0.028 -0.691153,-0.017 z m 1.096322,1.3469 c 0.347947,0.086 0.686651,0.3151 1.165429,0.7867 l 0.183513,0.1807 v 0.4759 0.4757 l -0.664939,-0.01 c -0.717324,-0.01 -0.782011,-0.01 -1.010974,-0.06 -0.485522,-0.1089 -0.798907,-0.3566 -0.902161,-0.7129 -0.04593,-0.1585 -0.05213,-0.3304 -0.01829,-0.5065 0.07198,-0.3747 0.368971,-0.6049 0.847021,-0.6565 0.09141,-0.01 0.324895,0 0.400389,0.021 z m 11.697232,-1.346 c -1.077076,0.071 -1.745904,0.4351 -2.073025,1.1302 -0.129996,0.2762 -0.202553,0.607 -0.228881,1.0436 -0.0057,0.103 -0.0099,0.8226 -0.0099,1.9329 v 1.7688 h -0.943788 -0.943788 v 0.653 0.653 h 0.943788 0.943788 v 0.9003 0.9001 l 0.05006,0.014 c 0.02756,0.01 0.408265,0.107 0.846078,0.2205 0.437812,0.1135 0.803524,0.2084 0.8127,0.2111 0.0158,0.01 0.01671,-0.053 0.01671,-1.1207 v -1.1256 h 1.368007 1.368023 v -0.653 -0.653 h -1.36828 -1.368279 l 0.0033,-1.7803 c 0.0033,-1.7794 0.0033,-1.7804 0.02375,-1.8853 0.0403,-0.2052 0.09445,-0.3493 0.179219,-0.477 0.133669,-0.2014 0.347359,-0.322 0.666635,-0.3762 0.166527,-0.028 0.58113,-0.027 0.857994,0.01 0.271807,0.03 0.695604,0.1127 0.98429,0.1921 l 0.02146,0.01 v -0.6715 -0.6714 l -0.245482,-0.048 c -0.42395,-0.084 -0.822485,-0.1409 -1.163805,-0.1641 -0.131742,-0.01 -0.621127,-0.01 -0.740449,0 z m 31.473852,0 c -0.83333,0.076 -1.4388,0.3174 -1.94477,0.7749 -0.4519,0.4086 -0.77819,1.0472 -0.91919,1.799 -0.0632,0.3366 -0.0861,0.6147 -0.0858,1.039 2.6e-4,0.3634 0.0117,0.5281 0.0565,0.8141 0.18219,1.1637 0.78085,2.0498 1.7002,2.5165 0.39006,0.1982 0.76756,0.3087 1.2456,0.3648 0.1794,0.021 0.70899,0.024 0.89131,0.01 0.39258,-0.041 0.73663,-0.1221 1.05258,-0.2491 0.55329,-0.2225 0.99962,-0.5997 1.30597,-1.1039 0.11318,-0.1863 0.24881,-0.4867 0.31449,-0.6965 0.0541,-0.1729 0.10499,-0.5151 0.15827,-1.065 0.0157,-0.1626 0.0328,-0.3361 0.0378,-0.3854 0.008,-0.078 0.005,-0.134 -0.0237,-0.4147 -0.084,-0.8282 -0.12896,-1.0777 -0.24784,-1.3762 -0.30616,-0.7688 -0.82955,-1.3471 -1.52497,-1.6848 -0.35303,-0.1715 -0.68937,-0.2673 -1.13942,-0.3246 -0.13883,-0.017 -0.73176,-0.027 -0.87685,-0.013 z m 0.77599,1.4674 c 0.40236,0.071 0.74145,0.3028 0.95176,0.6537 0.0916,0.1525 0.18184,0.3662 0.23771,0.5624 0.0439,0.1542 0.0454,0.2373 0.008,0.4908 -0.0317,0.2156 -0.0386,0.3575 -0.0198,0.4053 0.0178,0.045 0.0577,0.081 0.0979,0.087 l 0.0361,0.01 v 0.1197 c 0,0.4959 -0.10882,1.0062 -0.2826,1.3251 -0.18703,0.3431 -0.4446,0.5653 -0.78512,0.677 -0.32949,0.1082 -0.79273,0.1091 -1.10924,0 -0.36358,-0.1228 -0.66154,-0.4007 -0.85399,-0.7964 -0.12315,-0.2532 -0.18955,-0.4989 -0.23581,-0.8723 -0.0244,-0.197 -0.0245,-0.7546 -2.2e-4,-0.9533 0.0581,-0.4749 0.16381,-0.8008 0.35105,-1.082 0.0885,-0.133 0.26181,-0.3094 0.38754,-0.3944 0.20007,-0.1354 0.43361,-0.2185 0.69904,-0.2485 0.12402,-0.014 0.38611,-0.01 0.51757,0.019 z m 9.50079,-1.4714 c -0.42649,0.048 -0.7108,0.1426 -0.97912,0.3242 -0.22061,0.1494 -0.37149,0.305 -0.52771,0.5443 -0.23262,0.3566 -0.35621,0.788 -0.39005,1.3614 -0.006,0.1006 -0.009,1.0703 -0.009,2.5573 l -9e-5,2.3951 h 0.84369 0.84369 v -2.3741 c 0,-1.5699 0.003,-2.4055 0.0103,-2.4667 0.0658,-0.6172 0.34025,-0.9081 0.85632,-0.9075 0.24808,2e-4 0.46965,0.078 0.69197,0.2423 0.22134,0.1636 0.55948,0.5261 0.85612,0.9177 l 0.10247,0.1352 v 2.2266 2.2265 h 0.83892 0.83892 v -3.5177 -3.5177 h -0.72329 -0.7233 l -0.006,0.074 c -0.003,0.041 -0.0131,0.2744 -0.0223,0.5196 -0.009,0.2451 -0.0193,0.4456 -0.0227,0.4456 -0.003,0 -0.0528,-0.054 -0.10981,-0.1216 -0.13165,-0.1543 -0.42275,-0.4466 -0.52844,-0.5307 -0.28565,-0.227 -0.5905,-0.3762 -0.95332,-0.4664 -0.22126,-0.054 -0.30801,-0.065 -0.59583,-0.068 h -0.29076 z m -31.187842,0.029 c -0.807391,0.033 -1.481923,0.2269 -2.006747,0.5765 -0.166577,0.1111 -0.26731,0.1913 -0.39945,0.318 -0.509916,0.4889 -0.823706,1.1591 -0.925629,1.9769 -0.02978,0.2392 -0.03809,0.3879 -0.03809,0.6776 5.1e-5,0.2875 0.01386,0.4959 0.04795,0.7217 0.212205,1.4066 1.10886,2.4509 2.429288,2.8295 0.464627,0.1333 0.918699,0.1803 1.531884,0.1588 0.442736,-0.015 0.673053,-0.039 1.081528,-0.1116 0.174482,-0.031 0.564888,-0.1212 0.589538,-0.1365 0.008,-0.01 0.0106,-0.2065 0.009,-0.8192 l -0.002,-0.8124 -0.079,0.038 c -0.356963,0.1726 -0.886818,0.3227 -1.329832,0.3768 -0.606182,0.074 -1.062831,0.011 -1.463185,-0.2002 -0.463938,-0.2453 -0.768231,-0.6441 -0.921933,-1.2083 -0.08173,-0.3003 -0.110969,-0.7512 -0.07146,-1.1033 0.05596,-0.4978 0.268819,-0.9765 0.565072,-1.2702 0.144174,-0.1428 0.297731,-0.25 0.497503,-0.347 0.462655,-0.2244 1.041064,-0.2613 1.773185,-0.1129 0.273173,0.055 0.706361,0.1848 0.96141,0.2873 0.0569,0.023 0.10516,0.041 0.10731,0.041 0.002,0 0.002,-0.3355 0.002,-0.7455 l -0.002,-0.7454 -0.0572,-0.023 c -0.21653,-0.086 -0.600089,-0.1981 -0.867532,-0.2538 -0.414573,-0.086 -0.98827,-0.1319 -1.42998,-0.1138 z m -39.603294,3.7281 3.610703,3.6108 v 8.0159 8.0157 l 1.494328,-0.01 c 1.496835,-0.01 1.580629,-0.01 1.894717,-0.04 0.579732,-0.064 1.163046,-0.2319 1.55276,-0.4486 0.692427,-0.3851 1.115205,-0.9614 1.268468,-1.7295 0.152816,-0.7657 0.03327,-1.6388 -0.312037,-2.2783 -0.458183,-0.8486 -1.315746,-1.4041 -2.435493,-1.5779 -0.329429,-0.051 -0.403375,-0.055 -1.098516,-0.062 l -0.653024,-0.01 0.0033,-8.5536 0.0033,-8.5537 h -4.469779 -4.46997 z m 6.675622,14.9293 c 0.308786,0.049 0.529781,0.1301 0.734361,0.2672 0.434859,0.2912 0.671525,0.7531 0.697002,1.3603 0.01291,0.3068 -0.04344,0.5985 -0.163706,0.8485 -0.183869,0.3822 -0.5502,0.6479 -1.046156,0.7586 -0.250327,0.055 -0.299021,0.059 -0.962703,0.064 h -0.617279 v -1.665 -1.6651 h 0.617279 c 0.569199,0 0.62692,0.01 0.741202,0.024 z m 40.473194,-13.6446 v 4.8953 h 0.83892 0.83892 l -7e-5,-1.2274 -7e-5,-1.2274 -0.038,-0.5768 c -0.0208,-0.3172 -0.0379,-0.5961 -0.0377,-0.6196 l 2.2e-4,-0.043 0.0244,0.028 c 0.18672,0.2179 0.4442,0.4715 0.58977,0.5811 0.33683,0.2535 0.69212,0.3969 1.13923,0.4596 0.14767,0.021 0.56661,0.024 0.70545,0.01 0.45139,-0.061 0.79561,-0.2103 1.10917,-0.4825 0.0781,-0.068 0.22563,-0.241 0.29854,-0.3504 0.22521,-0.3381 0.36681,-0.8156 0.40333,-1.36 0.006,-0.093 0.0103,-1.0084 0.0103,-2.5621 v -2.4158 h -0.84351 -0.84352 l -0.003,2.4429 c -0.003,2.6543 3.2e-4,2.4667 -0.0539,2.6774 -0.0853,0.3314 -0.28112,0.5369 -0.57721,0.6056 -0.059,0.014 -0.11164,0.017 -0.23355,0.017 -0.13796,0 -0.16881,0 -0.25086,-0.026 -0.16549,-0.044 -0.31589,-0.1189 -0.4708,-0.2339 -0.0462,-0.034 -0.16775,-0.1462 -0.27023,-0.2489 -0.19375,-0.1939 -0.35949,-0.3858 -0.54727,-0.6333 l -0.11008,-0.1452 v -2.2279 -2.2278 H 94.07962 93.2407 Z m 69.68767,6.7304 v 11.6258 h 0.86275 0.86276 v -8.0246 -8.0245 l 3.60116,-3.6012 3.60117,-3.6013 h -4.46392 -4.46392 z m 21.03977,-7.0974 v 4.5282 l 1.04149,-2e-4 1.04151,-10e-5 1.23423,-2.7143 c 1.04651,-2.3017 1.26738,-2.795 1.45216,-3.2436 0.11985,-0.2911 0.22189,-0.5333 0.22673,-0.5382 0.006,-0.01 0.009,1.2543 0.009,3.2438 v 3.2526 h 0.77219 0.77218 v -4.5282 -4.5284 l -1.03673,4e-4 -1.03674,3e-4 -1.21071,2.6994 c -0.66589,1.4848 -1.32251,2.9603 -1.45916,3.279 -0.13664,0.3186 -0.2514,0.5824 -0.25501,0.586 -0.003,0 -0.006,-1.4721 -0.006,-3.2792 v -3.2859 h -0.77219 -0.77219 z m 11.49704,0 v 4.5282 h 2.72648 2.7265 v -0.7198 -0.7196 h -1.86373 -1.86375 v -1.1298 -1.1297 h 1.77318 1.77317 v -0.7006 -0.7008 h -1.77317 -1.77318 v -1.2583 -1.2584 h 1.86375 1.86373 v -0.7197 -0.7199 h -2.7265 -2.72648 z m -85.02347,-0.958 c 4e-5,0.037 0.002,0.05 0.004,0.031 0.002,-0.02 0.002,-0.049 -7e-5,-0.067 -0.002,-0.017 -0.004,0 -0.003,0.036 z"
         id="path3" /><path
         id="path10"
         style="display:inline;fill:none;fill-opacity:1;stroke:#000000;stroke-width:0.504;stroke-linecap:round;stroke-linejoin:round;stroke-miterlimit:4;stroke-dasharray:none;stroke-opacity:0.7"
         d="m 176.65281,1247.6962 c 0,0 -0.18978,0.2402 -0.57064,0.3603 -0.38087,0.1202 -0.94922,0.2725 -1.44141,0.1553 -0.49219,-0.1172 -0.95508,-0.2519 -1.07519,-0.3223 -0.12012,-0.07 -0.62403,-0.3369 -0.65919,-0.375 -0.0352,-0.038 -0.1582,-0.017 -0.1582,-0.017 0,0 0.33399,-0.3164 0.47754,-0.4102 0.14356,-0.094 0.74414,-0.4629 0.91114,-0.4687 0.16698,-0.01 0.61815,-0.042 1.00194,0.1 0.38379,0.1417 0.86133,0.2959 1.06056,0.4512 0.19921,0.1552 0.45345,0.5268 0.45345,0.5268 z m 0,0 c 0,0 0.72112,0.6868 1.41304,0.7365 0.69191,0.05 1.53713,-0.2776 1.71114,-0.4144 0.17402,-0.1367 0.35987,-0.2313 0.40088,-0.243 0.041,-0.012 0.25965,-0.028 0.25965,-0.028 0,0 -0.0575,-0.148 -0.30066,-0.3238 -0.24317,-0.1758 -0.59473,-0.3984 -1.08106,-0.4951 -0.48633,-0.097 -1.27442,0.053 -1.34473,0.067 -0.0703,0.015 -0.0644,0.015 -0.38965,0.1524 -0.32519,0.1377 -0.66861,0.5479 -0.66861,0.5479 z m 0.65508,-7.532 c 0,0 0.38853,-0.094 0.57018,-0.3811 0.18163,-0.2871 0.63867,-0.7109 0.79687,-0.791 0.1582,-0.08 1.4707,-0.08 1.60547,-0.08 0.13476,0 0.58593,0.078 0.68554,0.039 0.0996,-0.039 0.48633,-0.058 0.67383,-0.3105 0.1875,-0.252 0.31055,-0.3574 0.4336,-0.3633 0.12304,-0.01 0.25781,0.029 0.25781,0.029 m -4.97935,0.9602 c 0,0 -0.0978,-0.3066 -0.33804,-0.582 -0.24023,-0.2754 -0.48339,-0.5918 -0.78808,-0.7149 -0.30469,-0.123 -0.85547,-0.2021 -1.08105,-0.3867 -0.22559,-0.1846 -0.47252,-0.1189 -0.64747,-0.3729 -0.17494,-0.2541 -0.38086,-0.6232 -0.38965,-0.84 -0.009,-0.2168 -0.16698,-0.9668 -0.12304,-1.0605 m 3.11879,5.2685 c 0,0 -0.14516,-0.458 -0.34438,-0.7217 -0.19922,-0.2636 -1.04883,-0.6709 -1.35351,-0.7207 -0.30469,-0.05 -1.88672,-0.2431 -2.06543,-0.3574 -0.17872,-0.1142 -1.15723,-0.46 -1.22168,-0.5742 -0.0644,-0.1143 -0.44825,-0.5332 -0.51269,-0.7441 -0.0644,-0.211 -0.0644,-0.2139 -0.0644,-0.2139 m 5.22782,12.0609 c 0,0 -0.10773,-1.3134 -0.16159,-2.4072 -0.0539,-1.0938 -0.12844,-2.2166 -0.0829,-2.8795 0.0456,-0.663 0.1533,-1.9805 0.1823,-2.1214 0.029,-0.1408 0.24859,-0.9943 0.29003,-1.1228 0.0414,-0.1284 0.45989,-0.6712 0.40188,-1.1601 -0.058,-0.4889 -0.18644,-1.2388 -0.26102,-1.3714 -0.0745,-0.1326 -0.47233,-1.0026 -0.43918,-1.3175 0.0332,-0.3149 0.65877,-0.6546 0.81207,-0.7665 0.1533,-0.1119 0.90322,-0.6256 0.93636,-0.7748" /><path
         style="display:inline;fill:none;fill-opacity:1;stroke:#000000;stroke-width:0.504;stroke-linecap:round;stroke-linejoin:miter;stroke-miterlimit:4;stroke-dasharray:none;stroke-opacity:0.7"
         d="m 49.701947,1263.492 c 0,0 36.426211,-2.9115 56.843923,-2.9115 20.4177,0 58.10737,2.91 58.10737,2.91 v 0"
         id="path4" /><path
         style="fill:none;fill-opacity:1;stroke:#000000;stroke-width:0.504;stroke-linecap:round;stroke-linejoin:miter;stroke-miterlimit:4;stroke-dasharray:none;stroke-opacity:0.7"
         d="m 159.91706,1263.1005 -3.04239,-18.2468"
         id="path11" /><path
         style="fill:none;fill-opacity:1;stroke:#000000;stroke-width:0.504;stroke-linecap:round;stroke-linejoin:miter;stroke-miterlimit:4;stroke-dasharray:none;stroke-opacity:0.7"
         d="m 129.49677,1245.3369 -1.09861,15.8456"
         id="path11-8" /></g></g></svg>
